<mxfile host="app.diagrams.net" modified="2022-06-25T16:26:25.606Z" agent="5.0 (Macintosh; Intel Mac OS X 10_15_7) AppleWebKit/537.36 (KHTML, like Gecko) Chrome/103.0.0.0 Safari/537.36" etag="eXlFSahhWkelHOtzxAva" version="20.0.3" type="github">
  <diagram id="-Q_HBc9Qb_htMWY2XUfL" name="Page-1">
    <mxGraphModel dx="514" dy="335" grid="1" gridSize="10" guides="1" tooltips="1" connect="1" arrows="1" fold="1" page="1" pageScale="1" pageWidth="827" pageHeight="1169" math="0" shadow="0">
      <root>
        <mxCell id="0" />
        <mxCell id="1" parent="0" />
        <mxCell id="EJR86xED21SjGSu-l6Im-1" value="" style="shape=parallelogram;perimeter=parallelogramPerimeter;whiteSpace=wrap;html=1;fixedSize=1;size=120;" vertex="1" parent="1">
          <mxGeometry x="60" y="160" width="430" height="130" as="geometry" />
        </mxCell>
        <mxCell id="EJR86xED21SjGSu-l6Im-2" value="" style="endArrow=classic;html=1;rounded=0;strokeWidth=2;strokeColor=#00aaaa;" edge="1" parent="1">
          <mxGeometry width="50" height="50" relative="1" as="geometry">
            <mxPoint x="195" y="240" as="sourcePoint" />
            <mxPoint x="315" y="240" as="targetPoint" />
          </mxGeometry>
        </mxCell>
        <mxCell id="EJR86xED21SjGSu-l6Im-3" value="" style="endArrow=classic;html=1;rounded=0;strokeWidth=2;strokeColor=#FF00ff;" edge="1" parent="1">
          <mxGeometry width="50" height="50" relative="1" as="geometry">
            <mxPoint x="200" y="240" as="sourcePoint" />
            <mxPoint x="200" y="120" as="targetPoint" />
          </mxGeometry>
        </mxCell>
        <mxCell id="EJR86xED21SjGSu-l6Im-5" value="&lt;font style=&quot;font-size: 20px;&quot;&gt;|&lt;span style=&quot;background-color: rgb(245, 245, 245); color: rgb(51, 51, 51); font-family: RictyDiminished-Regular, Menlo, Monaco, &amp;quot;Courier New&amp;quot;, monospace, Menlo, Monaco, &amp;quot;Courier New&amp;quot;, monospace;&quot;&gt;✓&lt;/span&gt;&lt;span style=&quot;background-color: initial;&quot;&gt;&amp;gt;&lt;/span&gt;&lt;/font&gt;" style="text;html=1;strokeColor=none;fillColor=none;align=center;verticalAlign=middle;whiteSpace=wrap;rounded=0;" vertex="1" parent="1">
          <mxGeometry x="170" y="80" width="60" height="30" as="geometry" />
        </mxCell>
        <mxCell id="EJR86xED21SjGSu-l6Im-6" value="&lt;font style=&quot;font-size: 20px;&quot;&gt;&lt;font style=&quot;font-size: 20px;&quot;&gt;|&lt;span style=&quot;background-color: rgb(245, 245, 245); color: rgb(51, 51, 51); font-family: RictyDiminished-Regular, Menlo, Monaco, &amp;quot;Courier New&amp;quot;, monospace, Menlo, Monaco, &amp;quot;Courier New&amp;quot;, monospace;&quot;&gt;✗&lt;/span&gt;&lt;/font&gt;&lt;span style=&quot;background-color: initial;&quot;&gt;&amp;gt;&lt;/span&gt;&lt;/font&gt;" style="text;html=1;strokeColor=none;fillColor=none;align=center;verticalAlign=middle;whiteSpace=wrap;rounded=0;" vertex="1" parent="1">
          <mxGeometry x="320" y="220" width="60" height="30" as="geometry" />
        </mxCell>
        <mxCell id="EJR86xED21SjGSu-l6Im-7" value="" style="endArrow=classic;html=1;rounded=0;strokeWidth=2;strokeColor=#000000;" edge="1" parent="1">
          <mxGeometry width="50" height="50" relative="1" as="geometry">
            <mxPoint x="200" y="240" as="sourcePoint" />
            <mxPoint x="310" y="210" as="targetPoint" />
          </mxGeometry>
        </mxCell>
        <mxCell id="EJR86xED21SjGSu-l6Im-9" value="θ" style="text;html=1;strokeColor=none;fillColor=none;align=center;verticalAlign=middle;whiteSpace=wrap;rounded=0;fontSize=20;" vertex="1" parent="1">
          <mxGeometry x="243" y="215" width="60" height="30" as="geometry" />
        </mxCell>
        <mxCell id="EJR86xED21SjGSu-l6Im-10" value="|s&amp;gt;" style="text;html=1;strokeColor=none;fillColor=none;align=center;verticalAlign=middle;whiteSpace=wrap;rounded=0;fontSize=20;" vertex="1" parent="1">
          <mxGeometry x="303" y="180" width="60" height="30" as="geometry" />
        </mxCell>
        <mxCell id="EJR86xED21SjGSu-l6Im-12" value="" style="endArrow=classic;html=1;fontSize=20;strokeColor=#000000;strokeWidth=1;curved=1;dashed=1;" edge="1" parent="1">
          <mxGeometry width="50" height="50" relative="1" as="geometry">
            <mxPoint x="280" y="200" as="sourcePoint" />
            <mxPoint x="220" y="140" as="targetPoint" />
            <Array as="points">
              <mxPoint x="280" y="150" />
            </Array>
          </mxGeometry>
        </mxCell>
      </root>
    </mxGraphModel>
  </diagram>
</mxfile>
